<svg width="56" height="56" viewBox="0 0 56 56" fill="none" xmlns="http://www.w3.org/2000/svg">
<g filter="url(#filter0_b_2023_1822)">
<rect width="56" height="56" rx="28" fill="#101011"/>
<g filter="url(#filter1_b_2023_1822)">
<rect width="48" height="48" rx="24" transform="matrix(-1 0 0 1 52 4)" fill="#1C1C1D" fill-opacity="0.5"/>
<rect x="-0.7" y="0.7" width="46.6" height="46.6" rx="23.3" transform="matrix(-1 0 0 1 50.6 4)" stroke="white" stroke-opacity="0.2" stroke-width="1.4"/>
<path d="M28 18L38 24.5M28 18L18 24.5M28 18V24.5M38 24.5V31.5M38 24.5L28 31.5M38 31.5L28 38M38 31.5L28 24.5M28 38L18 31.5M28 38V31.5M18 31.5V24.5M18 31.5L28 24.5M18 24.5L28 31.5" stroke="white" stroke-linecap="round" stroke-linejoin="round"/>
</g>
</g>
<defs>
<filter id="filter0_b_2023_1822" x="-8" y="-8" width="72" height="72" filterUnits="userSpaceOnUse" color-interpolation-filters="sRGB">
<feFlood flood-opacity="0" result="BackgroundImageFix"/>
<feGaussianBlur in="BackgroundImageFix" stdDeviation="4"/>
<feComposite in2="SourceAlpha" operator="in" result="effect1_backgroundBlur_2023_1822"/>
<feBlend mode="normal" in="SourceGraphic" in2="effect1_backgroundBlur_2023_1822" result="shape"/>
</filter>
<filter id="filter1_b_2023_1822" x="-3.5" y="-3.5" width="63" height="63" filterUnits="userSpaceOnUse" color-interpolation-filters="sRGB">
<feFlood flood-opacity="0" result="BackgroundImageFix"/>
<feGaussianBlur in="BackgroundImageFix" stdDeviation="3.75"/>
<feComposite in2="SourceAlpha" operator="in" result="effect1_backgroundBlur_2023_1822"/>
<feBlend mode="normal" in="SourceGraphic" in2="effect1_backgroundBlur_2023_1822" result="shape"/>
</filter>
</defs>
</svg>
